<svg width="22" height="21" viewBox="0 0 22 21" fill="none" xmlns="http://www.w3.org/2000/svg">
<path d="M4.57171 8.18293C6.98539 3.91199 8.19222 1.77651 9.84826 1.22681C10.7593 0.924397 11.7407 0.924397 12.6517 1.22681C14.3078 1.77651 15.5146 3.91199 17.9283 8.18293C20.342 12.4539 21.5488 14.5893 21.1868 16.3293C20.9876 17.2866 20.4969 18.1549 19.785 18.8097C18.491 20 16.0774 20 11.25 20C6.42265 20 4.00897 20 2.71496 18.8097C2.00308 18.1549 1.51239 17.2866 1.31322 16.3293C0.951194 14.5893 2.15803 12.4539 4.57171 8.18293Z" stroke="#491C7C" stroke-width="1.5"/>
<path d="M11.241 14.5H11.25" stroke="#491C7C" stroke-width="2" stroke-linecap="round" stroke-linejoin="round"/>
<path d="M11.25 11.5L11.25 7.5" stroke="#491C7C" stroke-width="1.5" stroke-linecap="round" stroke-linejoin="round"/>
</svg>
