<svg width="28" height="28" viewBox="0 0 28 28" fill="none" xmlns="http://www.w3.org/2000/svg">
<path d="M12.5567 21.5C12.703 21.7533 12.9134 21.9637 13.1667 22.11C13.4201 22.2563 13.7075 22.3333 14 22.3333C14.2926 22.3333 14.5799 22.2563 14.8333 22.11C15.0867 21.9637 15.2971 21.7533 15.4433 21.5" stroke="#334155" stroke-width="2" stroke-linecap="round" stroke-linejoin="round"/>
<path d="M6.71833 16.7716C6.60947 16.8909 6.53763 17.0393 6.51155 17.1987C6.48547 17.3581 6.50627 17.5217 6.57142 17.6695C6.63658 17.8173 6.74328 17.9429 6.87855 18.0312C7.01381 18.1195 7.17182 18.1665 7.33333 18.1666H20.6667C20.8282 18.1667 20.9862 18.1198 21.1216 18.0317C21.2569 17.9436 21.3637 17.8181 21.4291 17.6704C21.4944 17.5227 21.5154 17.3592 21.4895 17.1998C21.4637 17.0404 21.392 16.8919 21.2833 16.7725C20.175 15.63 19 14.4158 19 10.6666C19 9.34054 18.4732 8.06877 17.5355 7.13109C16.5979 6.19341 15.3261 5.66663 14 5.66663C12.6739 5.66663 11.4021 6.19341 10.4645 7.13109C9.52679 8.06877 9 9.34054 9 10.6666C9 14.4158 7.82417 15.63 6.71833 16.7716Z" stroke="#334155" stroke-width="2" stroke-linecap="round" stroke-linejoin="round"/>
</svg>
