<svg width="23" height="23" viewBox="0 0 23 23" fill="none" xmlns="http://www.w3.org/2000/svg">
<path d="M21.0833 11.5H15.3333L13.4167 14.375H9.58333L7.66666 11.5H1.91666" stroke="#2563EB" stroke-width="2" stroke-linecap="round" stroke-linejoin="round"/>
<path d="M5.22291 5.39712L1.91666 12V17.75C1.91666 18.2584 2.1186 18.7459 2.47804 19.1053C2.83749 19.4648 3.325 19.6667 3.83333 19.6667H19.1667C19.675 19.6667 20.1625 19.4648 20.522 19.1053C20.8814 18.7459 21.0833 18.2584 21.0833 17.75V12L17.7771 5.39712C17.6184 5.0778 17.3738 4.80906 17.0707 4.62114C16.7677 4.43322 16.4182 4.33356 16.0617 4.33337H6.93833C6.58175 4.33356 6.23229 4.43322 5.92925 4.62114C5.62621 4.80906 5.38159 5.0778 5.22291 5.39712Z" stroke="#2563EB" stroke-width="2" stroke-linecap="round" stroke-linejoin="round"/>
</svg>
