<svg width="17" height="16" viewBox="0 0 17 16" fill="none" xmlns="http://www.w3.org/2000/svg">
<path d="M10.7342 1.33337H4.73421C4.38059 1.33337 4.04145 1.47385 3.7914 1.7239C3.54135 1.97395 3.40088 2.31309 3.40088 2.66671V13.3334C3.40088 13.687 3.54135 14.0261 3.7914 14.2762C4.04145 14.5262 4.38059 14.6667 4.73421 14.6667H12.7342C13.0878 14.6667 13.427 14.5262 13.677 14.2762C13.9271 14.0261 14.0675 13.687 14.0675 13.3334V4.66671L10.7342 1.33337Z" stroke="#491C7C" stroke-width="2" stroke-linecap="round" stroke-linejoin="round"/>
<path d="M10.0679 1.33337V4.00004C10.0679 4.35366 10.2083 4.6928 10.4584 4.94285C10.7084 5.1929 11.0476 5.33337 11.4012 5.33337H14.0679" stroke="#491C7C" stroke-width="2" stroke-linecap="round" stroke-linejoin="round"/>
</svg>
