<svg width="17" height="16" viewBox="0 0 17 16" fill="none" xmlns="http://www.w3.org/2000/svg">
<g clip-path="url(#clip0_15_1194)">
<path d="M9.9407 14.4573C9.96603 14.5205 10.0101 14.5743 10.0669 14.6117C10.1237 14.6491 10.1906 14.6682 10.2586 14.6664C10.3266 14.6647 10.3924 14.6422 10.4473 14.6019C10.5021 14.5617 10.5433 14.5057 10.5654 14.4413L14.8987 1.77466C14.92 1.71559 14.9241 1.65167 14.9104 1.59037C14.8968 1.52907 14.8659 1.47293 14.8215 1.42852C14.7771 1.3841 14.721 1.35326 14.6597 1.33959C14.5984 1.32592 14.5344 1.32999 14.4754 1.35133L1.8087 5.68466C1.74436 5.70673 1.68832 5.74794 1.64808 5.80278C1.60785 5.85761 1.58535 5.92344 1.58361 5.99144C1.58186 6.05943 1.60096 6.12632 1.63834 6.18315C1.67571 6.23997 1.72958 6.284 1.7927 6.30933L7.07937 8.42933C7.24649 8.49624 7.39833 8.5963 7.52574 8.72348C7.65315 8.85066 7.75349 9.00233 7.8207 9.16933L9.9407 14.4573Z" stroke="#491C7C" stroke-width="2" stroke-linecap="round" stroke-linejoin="round"/>
<path d="M14.8192 1.43127L7.52588 8.72394" stroke="#491C7C" stroke-width="2" stroke-linecap="round" stroke-linejoin="round"/>
</g>
<defs>
<clipPath id="clip0_15_1194">
<rect width="16" height="16" fill="white" transform="translate(0.25)"/>
</clipPath>
</defs>
</svg>
